<svg id="Strat_plan_logo" data-name="Strat plan logo" xmlns="http://www.w3.org/2000/svg" xmlns:xlink="http://www.w3.org/1999/xlink" width="641.818" height="224.092" viewBox="0 0 641.818 224.092">
  <defs>
    <clipPath id="clip-path">
      <path id="Path_7" data-name="Path 7" d="M0,146.6H641.818V-77.5H0Z" transform="translate(0 77.495)" fill="rgba(0,0,0,0)"/>
    </clipPath>
  </defs>
  <g id="Group_14" data-name="Group 14" clip-path="url(#clip-path)">
    <g id="Group_11" data-name="Group 11" transform="translate(-0.001 0)">
      <path id="Path_4" data-name="Path 4" d="M.6,61.8c1.524-2.282,3.964-3.042,7.165-3.042,6.4,0,15.855,3.042,25.155,3.042,24.086,0,37.5-11.032,37.5-26.121,0-14.453-12.2-21.806-23.631-28.908C34.748-.714,26.212-6.546,26.212-17.705c0-5.705,3.048-10.65,13.415-10.65,9.758,0,22.107,9.511,23.631,33.093h.913c.611-13.313.458-27.639,3.2-36.389l-.913-.633c-1.831,2.536-6.1,3.169-11.891,3.169-5.183,0-11.436-.506-17.99-.506-22.869,0-34.606,9.635-34.606,22.949,0,13.947,9.756,21.936,26.983,33.093,7.927,5.072,17.074,10.78,17.074,20.67,0,7.732-4.421,13.441-14.942,13.441-13.261,0-25-13.189-24.848-38.295H5.325c-.608,13.316-2.9,30.05-5.641,38.928Zm108.852-.127c12.2,0,17.225-5.451,17.225-13.692a29.769,29.769,0,0,0-1.828-9.638,2.133,2.133,0,0,0-2.9.127,17.809,17.809,0,0,1,2.9,9.762c0,6.469-3.81,11.414-9.147,11.414-7.165,0-4.879-11.032-4.879-23.585V-1.474h16.312V-2.744H110.822A139.352,139.352,0,0,1,112.5-21.635h-.916C109.144-9.082,100.151-2.744,76.52-2.744v1.269h2.44c6.707,0,8.234,3.3,8.234,13.819V45.819c0,12.047,8.231,15.849,22.258,15.849m23.321-1.394h46.5V59.006h-5.337c-5.792,0-7.623-1.775-7.623-7.608V25.786c0-17.37,6.707-28.148,15.092-28.148,3.964,0,5.641,2.154,5.641,5.327,0,3.675-2.286,8.493-5.641,12.3,2.44,3.551,7.472,5.451,12.349,5.451,6.861,0,13.722-3.675,13.722-11.665,0-9.762-8.385-13.947-20.429-13.947-15.7,0-19.665,11.411-21.038,18.891h-.762c.458-9,1.524-15.974,3.81-21.3l-.913-.254c-2.9,4.818-5.945,4.818-35.371,4.818v1.269h1.982c6.557,0,7.93,2.536,7.93,13.819v39.18c0,5.581-1.982,7.481-8.385,7.481h-1.527Zm102.6,1.9c14.939,0,21.5-6.214,23.02-17.119h.916c-1.373,11.92,6.25,16.737,16.008,16.737,13.111,0,16.77-8.241,16.77-14.962a16.846,16.846,0,0,0-1.069-6.087,1.744,1.744,0,0,0-2.59.382,14.473,14.473,0,0,1,1.678,7.1c0,4.693-1.831,9-4.879,9-2.593,0-3.355-3.169-3.355-9.129,0-9.381,2.135-22.948,2.135-29.036,0-15.595-10.825-23.836-32.167-23.836C226.532-4.771,215.4.935,215.4,10.191c0,6.339,5.641,9.762,12.5,9.762a23.519,23.519,0,0,0,14.023-4.818c-2.132-2.282-5.183-7.1-5.183-11.283,0-3.933,2.747-7.356,11.282-7.356,9.6,0,12.044,8.369,12.044,16.737a71.807,71.807,0,0,1-1.831,14.71A71.793,71.793,0,0,0,244.98,26.8c-16.312,0-33.694,4.818-33.694,18.258,0,11.032,10.063,17.119,24.089,17.119m9.6-3.805c-6.557,0-7.777-6.087-7.777-14.2,0-9.508,1.831-15.722,12.044-15.722a42.618,42.618,0,0,1,8.843,1.142c0,19.652-4.268,28.781-13.111,28.781m83.848,3.3c12.2,0,17.228-5.451,17.228-13.692a29.779,29.779,0,0,0-1.831-9.638,2.129,2.129,0,0,0-2.894.127,17.828,17.828,0,0,1,2.894,9.762c0,6.469-3.81,11.414-9.147,11.414-7.165,0-4.876-11.032-4.876-23.585V-1.474h16.312V-2.744H330.2a139.939,139.939,0,0,1,1.675-18.891h-.913C328.523-9.082,319.527-2.744,295.9-2.744v1.269h2.44c6.707,0,8.231,3.3,8.231,13.819V45.819c0,12.047,8.232,15.849,22.258,15.849m65.7.254c19.059,0,28.661-10.526,28.661-20.667a15.85,15.85,0,0,0-1.675-6.975c-.916-.761-3.051-.127-3.659,1.015a12.254,12.254,0,0,1,2.59,7.481c0,8.5-8.231,17.876-25.917,17.876-19.665,0-13.568-20.158-13.568-32.711h44.365a20.936,20.936,0,0,0,1.831-8.878c0-11.029-8.385-23.836-36.133-23.836-20.122,0-36.893,9.508-36.893,32.838,0,24.218,16.312,33.856,40.4,33.856M381.117,26.546c-.3-11.792-5.792-30.051,9.909-30.051,9.6,0,11.74,6.087,11.74,13.062,0,6.211-1.678,13.059-1.678,16.989Zm88.269,66.315c28.2,0,44.365-9.129,44.365-24.345,0-18.131-21.953-20.415-41.01-21.555-14.484-.888-27.137-1.015-27.137-6.72,0-2.918,2.44-4.439,5.641-6.466,5.488,1.648,10.975,2.409,20.427,2.409,21.345,0,34.76-5.327,34.76-21.176,0-14.453-12.349-19.273-33.691-19.4a16.208,16.208,0,0,1-.154-2.66c0-11.159,8.231-14.583,12.653-14.583,5.183,0,6.707,2.282,6.707,4.945,0,2.79-1.524,5.96-2.895,8.114a11.343,11.343,0,0,0,7.927,2.79c4.879,0,9.755-2.409,9.755-7.735,0-6.466-5.641-11.156-15.55-11.156-9.451,0-20.276,4.312-20.276,17.116a22.779,22.779,0,0,0,.154,3.169c-21.345.127-34,4.693-34,19.528,0,10.523,5.337,15.468,12.96,18.258-7.015,3.551-13.264,9.762-13.264,16.992S441.029,62.051,447.89,64.2c-10.213,2.663-13.264,7.226-13.264,12.807,0,7.732,12.5,15.849,34.76,15.849m-.3-1.269c-13.722,0-32.778-4.563-32.778-14.707,0-5.327,3.506-9.384,12.806-12.3a80.578,80.578,0,0,0,17.074,2.282c6.1.254,12.2.254,17.686.506,10.671.509,18.752,2.03,18.752,9.256,0,8.75-8.539,14.962-33.54,14.962m2.59-56.677c-13.261,0-10.06-9.508-10.06-20.285,0-10.017-3.813-17.752,10.06-17.752,14.484,0,9.909,7.735,9.909,17.752,0,10.65,3.813,20.285-9.909,20.285m44.823,25.36h44.362V59.006h-1.982c-5.945,0-7.927-1.9-7.927-7.608V11.839c0-7.987.611-17.116,1.678-20.415l-.916-.252c-3.657,5.96-6.4,6.084-34.757,6.084v1.269h1.982c6.554,0,8.385,2.536,8.385,13.819v39.18c0,5.581-1.982,7.481-8.843,7.481h-1.982Zm21.646-75.317c8.692,0,13.568-3.3,13.568-8.747,0-5.581-4.876-8.878-13.568-8.878s-13.568,3.3-13.568,8.878c0,5.451,4.879,8.747,13.568,8.747m70.74,76.965c18.445,0,28.661-9.89,28.661-20.921a18.724,18.724,0,0,0-1.982-8.369c-1.373-.888-3.813.254-4.117,1.394a14.264,14.264,0,0,1,3.355,9.129c0,8.878-9,17.5-25.917,17.5-20.583,0-13.722-20.54-13.722-33.093,0-11.792-6.861-31.065,10.671-31.065,9.758,0,12.349,5.2,12.349,11.286,0,5.324-1.982,11.156-3.048,14.707,2.744,2.282,7.319,3.551,12.044,3.551,7.165,0,14.331-3.042,14.331-10.4,0-12.932-15.246-20.412-35.676-20.412-20.58,0-37.5,9.508-37.5,32.838,0,24.218,16.619,33.856,40.555,33.856" transform="translate(0.316 32.667)" fill="#fff"/>
    </g>
    <g id="Group_12" data-name="Group 12" transform="translate(301.363 93.852)">
      <path id="Path_5" data-name="Path 5" d="M0,64.781H50.768V63.515H46.193c-6.4,0-8.385-3.045-8.385-7.608V29.153a88.627,88.627,0,0,0,9.909.506C74.246,29.659,88.727,18.5,88.727,1c0-16.358-10.213-25.615-41.16-25.615-8.385,0-18.294.636-24.851.636H0v1.267H3.506c7.623,0,9.147,3.169,9.147,7.608V55.907c0,4.436-1.524,7.608-9.147,7.608H0ZM48.937,28.392c-3.964,0-9.147-1.015-11.28-2.663V-22.453a40.015,40.015,0,0,1,9.451-.888c19.36,0,13.719,15.089,13.719,25.23,0,14.965,4.879,26.5-11.891,26.5M91.471,64.781h44.365V63.515h-1.982c-5.945,0-7.927-1.9-7.927-7.608V-13.578c0-7.987.608-17.116,1.678-20.412l-.916-.254c-3.659,5.96-8.081,7.608-34.76,7.354v1.269H93.91c6.707,0,8.385,2.533,8.385,13.819V56.034c0,5.578-1.982,7.481-8.843,7.481H91.471Zm75.008,1.9c14.942,0,21.5-6.214,23.02-17.119h.916c-1.37,11.92,6.25,16.737,16.008,16.737,13.111,0,16.77-8.241,16.77-14.962a16.925,16.925,0,0,0-1.066-6.087,1.747,1.747,0,0,0-2.593.382,14.473,14.473,0,0,1,1.678,7.1c0,4.693-1.831,9-4.879,9-2.59,0-3.355-3.172-3.355-9.129,0-9.384,2.135-22.951,2.135-29.038,0-15.595-10.825-23.836-32.167-23.836-25.309,0-36.438,5.705-36.438,14.962,0,6.339,5.641,9.762,12.5,9.762a23.534,23.534,0,0,0,14.026-4.818c-2.135-2.282-5.183-7.1-5.183-11.283C167.852,4.426,170.6,1,179.131,1c9.6,0,12.044,8.369,12.044,16.734a72.054,72.054,0,0,1-1.828,14.71,71.826,71.826,0,0,0-13.264-1.142c-16.312,0-33.691,4.818-33.691,18.258,0,11.032,10.06,17.119,24.086,17.119m9.6-3.805c-6.554,0-7.774-6.084-7.774-14.2,0-9.508,1.828-15.722,12.042-15.722a42.617,42.617,0,0,1,8.843,1.142c0,19.652-4.268,28.781-13.111,28.781m52.443,1.9h43.145V63.515h-1.22c-6.557,0-8.385-1.9-8.385-7.608V30.292c0-19.525,7.469-28.908,19.056-28.908,9.6,0,6.861,12.171,6.861,23.457V56.034c0,5.578-1.678,7.481-8.385,7.481h-1.066v1.267h42.687V63.515h-1.831c-5.641,0-7.319-1.9-7.319-7.608v-35c0-17.246-11.891-21.809-25-21.809-17.683,0-22.716,8.747-25.155,17.625L261,16.6c.458-9,1.982-14.962,3.81-19.4l-.916-.254c-2.744,4.693-6.707,4.82-35.368,4.82V3.032h1.982c6.557,0,7.927,2.536,7.927,13.822v39.18c0,5.578-1.982,7.481-8.385,7.481h-1.524Z" transform="translate(0 34.245)" fill="#fff"/>
    </g>
    <g id="Group_13" data-name="Group 13" transform="translate(470.661 199.151)">
      <path id="Path_6" data-name="Path 6" d="M.463,16.316c.1-2.114.834-3.395,2.6-3.395,2.471,0,5.23,1.793,7.666,1.793,2.79,0,3.975-1.854,3.975-7.232l-.191-.032c-.1,1.535-.739,2.4-2.214,2.4-2.243,0-5.291-1.376-7.377-1.376-1.733,0-3.465.706-4.137,3.519H.654C.88,9.211,2.613,6.264,7.425,4.535c2.726-.995,6.829-2.371,6.829-6.726,0-4.069-3.141-5.7-7.342-5.7-4.491,0-7.157,2.2-7.157,5.376,0,2.626,1.541,3.97,3.274,3.97A4.034,4.034,0,0,0,5.533.53,9.953,9.953,0,0,1,4.151-4.209c0-2.082.643-3.363,2.857-3.363,2.022,0,2.535.8,2.535,1.955,0,.833-.353,1.888-.353,2.785,0,1.538.322,2.018.258,3.236-.1,2.209-2.182,3.074-4.013,4.132C2.613,6.169.109,8.636.109,13.849a22.625,22.625,0,0,0,.162,2.467Zm25.12-1.09c5.134,0,8.405-4.638,8.405-11.781,0-6.631-3.271-11.269-8.405-11.269s-8.434,4.638-8.434,11.3c0,7.111,3.3,11.749,8.434,11.749m-.032-.315c-4.653,0-2.761-7.559-2.761-11.691C22.79-.56,20.9-7.509,25.551-7.509S28.345-.592,28.345,3.219c0,4.069,1.86,11.691-2.793,11.691m11.587,1.405c.1-2.114.834-3.395,2.6-3.395,2.469,0,5.23,1.793,7.666,1.793,2.79,0,3.975-1.854,3.975-7.232l-.191-.032c-.1,1.535-.739,2.4-2.214,2.4-2.243,0-5.291-1.376-7.377-1.376-1.733,0-3.465.706-4.14,3.519h-.127c.226-2.782,1.959-5.728,6.771-7.458,2.726-.995,6.829-2.371,6.829-6.726,0-4.069-3.141-5.7-7.342-5.7-4.494,0-7.157,2.2-7.157,5.376,0,2.626,1.541,3.97,3.274,3.97a4.021,4.021,0,0,0,2.5-.928,9.986,9.986,0,0,1-1.379-4.739c0-2.082.643-3.363,2.857-3.363,2.019,0,2.535.8,2.535,1.955,0,.833-.353,1.888-.353,2.785,0,1.538.319,2.018.255,3.236-.1,2.209-2.182,3.074-4.01,4.132-2.822,1.634-5.325,4.1-5.325,9.314a23.33,23.33,0,0,0,.159,2.467Zm25.12-1.09c5.134,0,8.405-4.638,8.405-11.781,0-6.631-3.271-11.269-8.405-11.269s-8.437,4.638-8.437,11.3c0,7.111,3.3,11.749,8.437,11.749m-.032-.315c-4.653,0-2.761-7.559-2.761-11.691,0-3.779-1.892-10.728,2.761-10.728S65.02-.592,65.02,3.219c0,4.069,1.86,11.691-2.793,11.691m11.1-11.052h6.739V3.222H73.326ZM83.951,16.316c.1-2.114.832-3.395,2.6-3.395,2.469,0,5.23,1.793,7.666,1.793,2.787,0,3.975-1.854,3.975-7.232L98,7.45c-.1,1.535-.739,2.4-2.214,2.4-2.245,0-5.291-1.376-7.377-1.376-1.733,0-3.465.706-4.14,3.519h-.127c.223-2.782,1.956-5.728,6.771-7.458,2.726-.995,6.829-2.371,6.829-6.726,0-4.069-3.141-5.7-7.345-5.7-4.491,0-7.154,2.2-7.154,5.376,0,2.626,1.539,3.97,3.271,3.97a4.034,4.034,0,0,0,2.5-.928A9.986,9.986,0,0,1,87.64-4.209c0-2.082.64-3.363,2.857-3.363,2.019,0,2.532.8,2.532,1.955,0,.833-.351,1.888-.351,2.785,0,1.538.319,2.018.255,3.236-.1,2.209-2.182,3.074-4.01,4.132C86.1,6.169,83.6,8.636,83.6,13.849a23.328,23.328,0,0,0,.159,2.467Zm25.12-1.09c5.134,0,8.4-4.638,8.4-11.781,0-6.631-3.268-11.269-8.4-11.269s-8.437,4.638-8.437,11.3c0,7.111,3.3,11.749,8.437,11.749m-.032-.315c-4.653,0-2.761-7.559-2.761-11.691,0-3.779-1.892-10.728,2.761-10.728s2.793,6.917,2.793,10.728c0,4.069,1.86,11.691-2.793,11.691m11.584,1.405c.1-2.114.834-3.395,2.6-3.395,2.471,0,5.23,1.793,7.666,1.793,2.79,0,3.978-1.854,3.978-7.232l-.194-.032c-.1,1.535-.736,2.4-2.211,2.4-2.245,0-5.294-1.376-7.38-1.376-1.733,0-3.462.706-4.137,3.519h-.127c.223-2.782,1.956-5.728,6.768-7.458,2.726-.995,6.832-2.371,6.832-6.726,0-4.069-3.144-5.7-7.345-5.7-4.491,0-7.154,2.2-7.154,5.376,0,2.626,1.539,3.97,3.271,3.97a4.034,4.034,0,0,0,2.5-.928,9.954,9.954,0,0,1-1.379-4.739c0-2.082.64-3.363,2.854-3.363,2.022,0,2.535.8,2.535,1.955,0,.833-.353,1.888-.353,2.785,0,1.538.322,2.018.258,3.236-.1,2.209-2.182,3.074-4.01,4.132-2.825,1.634-5.328,4.1-5.328,9.314a23.376,23.376,0,0,0,.162,2.467Zm23.646-1.024a7.51,7.51,0,0,0,7.762-7.75c0-3.779-2.564-6.561-7.6-6.593a10.751,10.751,0,0,0-4.752.989h-.162v-2.4c0-1.764,1.35-2.212,3.115-2.212,1.863,0,4.207.515,5.9.515,1.379,0,2.341-.321,2.341-1.475V-8.625h-.322v.671c0,.48-.608.642-1.507.642-1.57,0-4.042-.448-6.128-.448-2.054,0-3.72.448-3.72,2.175V5.622h.191c0-2.371,1.313-4.358,4.491-4.358,4.494,0,2.634,4.037,2.634,6.662,0,2.6,2.083,7.047-2.344,7.047-1.927,0-2.535-1.634-2.535-3.395a10.135,10.135,0,0,1,.739-3.684,4.349,4.349,0,0,0-2.121-.544,2.844,2.844,0,0,0-3.141,2.819c0,2.915,2.95,5.121,7.154,5.121" transform="translate(0.244 8.625)" fill="#fff"/>
    </g>
  </g>
</svg>
