<svg xmlns="http://www.w3.org/2000/svg" xmlns:xlink="http://www.w3.org/1999/xlink" width="721.813" height="50.228" viewBox="0 0 721.813 50.228">
  <defs>
    <clipPath id="clip-path">
      <path id="Path_9" data-name="Path 9" d="M0,32.3H721.813V-17.932H0Z" transform="translate(0 17.932)" fill="none"/>
    </clipPath>
  </defs>
  <g id="Work_that_is_now_carried" data-name="Work that is now carried" transform="translate(0 17.932)">
    <g id="Group_18" data-name="Group 18" transform="translate(0 -17.932)" clip-path="url(#clip-path)">
      <g id="Group_17" data-name="Group 17" transform="translate(-0.001)">
        <path id="Path_8" data-name="Path 8" d="M12.782,32.3h.563l9.6-30.1L33.476,32.3H34.1L43.7-3.448c1.569-5.832,4.076-8.778,6.961-8.778h.627v-.627H38.554v.627h1.129c2.759,0,3.762,2.319,3.762,5.017a12.109,12.109,0,0,1-.437,3.325L37.551,16.871h-.314L31.092-3.885a20.826,20.826,0,0,1-1.129-5.33c0-2.07,1.067-3.011,3.7-3.011H34.98v-.627H-7.1v.627h.692c3.26,0,4.451,1.756,5.58,5.017ZM17.3,17.12,10.463-5.14a16.984,16.984,0,0,1-.88-4.454c0-1.879.941-2.633,2.947-2.633h1.507c3.762,0,4.577,1.695,5.706,5.017l2.885,8.215L17.611,17.12ZM62.822,31.856c9.28,0,16.053-4.765,16.053-16.742,0-11.537-6.773-16.24-16.053-16.24S46.77,3.577,46.77,15.115c0,11.977,6.773,16.742,16.053,16.742m0-.627c-7.84,0-5.017-10.157-5.017-16.366C57.806,9.031,54.982-.5,62.822-.5s5.017,9.47,5.017,15.364c0,6.145,2.821,16.366-5.017,16.366m19.187-.188h19.125v-.627H98.942c-2.384,0-3.137-.877-3.137-3.762V13.986C95.8,5.4,98.564.065,102.015.065c1.63,0,2.319,1.067,2.319,2.633a11.367,11.367,0,0,1-2.319,6.084,5.829,5.829,0,0,0,5.078,2.695,5.42,5.42,0,0,0,5.644-5.767c0-4.829-3.448-6.9-8.4-6.9-6.459,0-8.089,5.644-8.652,9.344h-.314A36.994,36.994,0,0,1,96.933-2.381l-.375-.126C95.368-.123,94.113-.123,82.01-.123V.5h.815c2.7,0,3.26,1.252,3.26,6.835V26.716c0,2.759-.815,3.7-3.448,3.7H82.01Zm31.542,0h17.557v-.627h-.627c-2.258,0-3.134-1.316-3.134-3.762V17.12l2.319-2.445,6.711,16.366h13.229v-.627h-.625c-1.443,0-2.636-1.5-3.765-3.762l-9.092-18.56c.627-.627,2.7-2.636,3.762-3.639C141.081,3.389,144.4.5,147.038.5h.5V-.123H131.361V.5h1.88c2.571,0,4.014,1.064,4.014,2.821,0,1.569-1.129,3.762-3.574,6.272l-6.333,6.459V-7.711a55.674,55.674,0,0,1,.689-10.095l-.375-.126c-1.5,2.947-4.076,3.762-14.109,3.636v.627h.815c2.821,0,3.448,1.255,3.448,6.835V26.716c0,2.507-1,3.7-3.636,3.7h-.627Zm61.138.692c5.017,0,7.087-2.7,7.087-6.773a17.421,17.421,0,0,0-.753-4.767.771.771,0,0,0-1.19.064,10.161,10.161,0,0,1,1.19,4.826c0,3.2-1.569,5.644-3.762,5.644-2.947,0-2.008-5.454-2.008-11.664V.5h6.711V-.123h-6.711a82.522,82.522,0,0,1,.692-9.344h-.378c-1,6.207-4.7,9.344-14.423,9.344V.5h1c2.762,0,3.386,1.63,3.386,6.835V23.893c0,5.958,3.386,7.84,9.157,7.84m9.154-.692h18.061v-.627h-.627c-2.7,0-3.448-.877-3.448-3.762V14.235c0-9.594,3.322-14.484,8.151-14.484,3.636,0,2.507,5.958,2.507,11.537V26.716c0,2.759-.689,3.7-3.448,3.7h-.5v.627h17.434v-.627h-.627c-2.445,0-2.353,1.506-3.137-3.762s0-17.308,0-17.308c0-8.526-4.891-10.6-10.347-10.6-7.585,0-9.28,5.518-10.095,9.28h-.314V4.14c0-13.294.815-19.941,1.5-21.884l-.375-.126c-1.5,2.947-5.33,3.7-14.736,3.574v.627h.815c2.759,0,3.448,1.255,3.448,6.9V26.716c0,2.759-.815,3.7-3.636,3.7h-.627Zm50.542.941c6.145,0,8.843-3.073,9.468-8.465h.378c-.566,5.893,2.571,8.277,6.582,8.277,5.395,0,6.9-4.076,6.9-7.4a9.807,9.807,0,0,0-.44-3.008.646.646,0,0,0-1.064.188,8.356,8.356,0,0,1,.689,3.51c0,2.322-.753,4.454-2.006,4.454-1.067,0-1.381-1.569-1.381-4.515,0-4.641.88-11.35.88-14.361,0-7.711-4.454-11.787-13.232-11.787-10.409,0-14.988,2.821-14.988,7.4,0,3.137,2.322,4.829,5.143,4.829a8.684,8.684,0,0,0,5.77-2.384,10.441,10.441,0,0,1-2.132-5.58c0-1.944,1.126-3.639,4.639-3.639,3.952,0,4.955,4.14,4.955,8.28a42.276,42.276,0,0,1-.753,7.274,24.6,24.6,0,0,0-5.456-.566c-6.708,0-13.857,2.384-13.857,9.031,0,5.454,4.137,8.465,9.907,8.465m3.949-1.882c-2.695,0-3.2-3.008-3.2-7.022,0-4.7.751-7.776,4.952-7.776a14.676,14.676,0,0,1,3.639.566c0,9.72-1.756,14.232-5.395,14.232m34.489,1.633c5.017,0,7.087-2.7,7.087-6.773a17.421,17.421,0,0,0-.753-4.767.771.771,0,0,0-1.19.064,10.161,10.161,0,0,1,1.19,4.826c0,3.2-1.566,5.644-3.762,5.644-2.947,0-2.006-5.454-2.006-11.664V.5H280.1V-.123H273.39a82.665,82.665,0,0,1,.689-9.344H273.7C272.7-3.26,269-.123,259.281-.123V.5h1c2.759,0,3.386,1.63,3.386,6.835V23.893c0,5.958,3.386,7.84,9.154,7.84m20.691-.692h18.249v-.627h-.815c-2.445,0-3.26-.938-3.26-3.762V7.087a55.676,55.676,0,0,1,.689-10.095L308-3.134c-1.5,2.947-2.633,3.011-14.3,3.011V.5h.815c2.695,0,3.448,1.252,3.448,6.835V26.716c0,2.759-.815,3.7-3.639,3.7h-.815Zm8.9-37.248c3.574,0,5.582-1.63,5.582-4.325,0-2.759-2.008-4.392-5.582-4.392s-5.58,1.633-5.58,4.392c0,2.695,2.006,4.325,5.58,4.325m26.024,38.128c9.467,0,13.546-4.266,13.546-9.72,0-11.036-18.436-10.6-18.436-18.75,0-2.445,1.692-4.076,5.017-4.076,3.636,0,4.952,1.378,4.952,3.322a9.521,9.521,0,0,1-1.753,4.767,7,7,0,0,0,5.392,2.319c2.319,0,4.451-1.129,4.451-4.014,0-4.2-4.515-7.022-12.792-7.022-9.341,0-13.229,3.7-13.229,9.031,0,10.784,18.31,10.47,18.31,18.624,0,3.073-1.569,4.891-5.582,4.891-3.762,0-5.392-1.756-5.392-4.014a8.25,8.25,0,0,1,2.193-5.017,6.255,6.255,0,0,0-4.952-2.445c-2.633,0-5.078,1.63-5.078,4.577,0,4.076,4.2,7.526,13.355,7.526m27.9-.88h17.745v-.627h-.5c-2.695,0-3.448-.938-3.448-3.762V13.986c0-9.658,3.073-14.3,7.837-14.3,3.952,0,2.823,6.019,2.823,11.6V26.716c0,2.759-.689,3.7-3.448,3.7h-.44v.627h17.557v-.627h-.751c-2.322,0-3.011-.938-3.011-3.762V9.344c0-8.526-4.891-10.784-10.283-10.784-7.274,0-9.344,4.325-10.347,8.717l-.378-.064a33.393,33.393,0,0,1,1.569-9.594l-.375-.126c-1.129,2.319-2.759,2.384-14.549,2.384V.5h.815c2.7,0,3.26,1.252,3.26,6.835V26.716c0,2.759-.815,3.7-3.448,3.7h-.627Zm56.813.815c9.28,0,16.053-4.765,16.053-16.742,0-11.537-6.773-16.24-16.053-16.24s-16.056,4.7-16.056,16.24c0,11.977,6.773,16.742,16.056,16.742m0-.627c-7.84,0-5.017-10.157-5.017-16.366,0-5.832-2.823-15.364,5.017-15.364s5.014,9.47,5.014,15.364c0,6.145,2.823,16.366-5.014,16.366M445.769,32.3h.625l7.9-20.067L464.079,32.3h.627l8.025-23.389c2.008-5.9,3.888-8.4,6.961-8.4h.627V-.123H466.211V.5h1.879c3.577,0,5.456,3.2,3.952,7.65l-3.7,11.162h-.314L459.062-.123h-.44l-7.65,19.187h-.314L445.578,5.77a7.07,7.07,0,0,1-.563-2.507c0-1.818,1.255-2.759,3.512-2.759h1.5V-.123H428.962V.5h.689c2.7,0,3.513,1.63,4.891,4.952Zm62.516-.44c7.588,0,11.79-4.891,11.79-10.347a10.829,10.829,0,0,0-.815-4.137c-.566-.44-1.569.126-1.695.689a7.96,7.96,0,0,1,1.381,4.515c0,4.389-3.7,8.652-10.661,8.652-8.465,0-5.644-10.157-5.644-16.366C502.641,9.031,499.82-.5,507.03-.5c4.014,0,5.081,2.571,5.081,5.582a31.094,31.094,0,0,1-1.255,7.274,7.125,7.125,0,0,0,4.955,1.756c2.947,0,5.893-1.507,5.893-5.143,0-6.4-6.272-10.095-14.675-10.095-8.465,0-15.425,4.7-15.425,16.24,0,11.977,6.835,16.742,16.68,16.742m26.526.126c6.145,0,8.84-3.073,9.468-8.465h.375c-.563,5.893,2.571,8.277,6.585,8.277,5.392,0,6.9-4.076,6.9-7.4a9.807,9.807,0,0,0-.44-3.008.649.649,0,0,0-1.067.188,8.316,8.316,0,0,1,.692,3.51c0,2.322-.753,4.454-2.008,4.454-1.064,0-1.378-1.569-1.378-4.515,0-4.641.877-11.35.877-14.361,0-7.711-4.451-11.787-13.229-11.787-10.411,0-14.988,2.821-14.988,7.4,0,3.137,2.319,4.829,5.143,4.829a8.672,8.672,0,0,0,5.767-2.384,10.464,10.464,0,0,1-2.132-5.58c0-1.944,1.129-3.639,4.641-3.639,3.949,0,4.952,4.14,4.952,8.28a42.623,42.623,0,0,1-.751,7.274,24.6,24.6,0,0,0-5.456-.566c-6.708,0-13.857,2.384-13.857,9.031,0,5.454,4.137,8.465,9.907,8.465M538.76,30.1c-2.7,0-3.2-3.008-3.2-7.022,0-4.7.753-7.776,4.955-7.776a14.657,14.657,0,0,1,3.636.566c0,9.72-1.753,14.232-5.392,14.232m21.635.941h19.125v-.627h-2.2c-2.384,0-3.134-.877-3.134-3.762V13.986C574.191,5.4,576.95.065,580.4.065c1.63,0,2.319,1.067,2.319,2.633A11.344,11.344,0,0,1,580.4,8.781a5.829,5.829,0,0,0,5.078,2.695,5.418,5.418,0,0,0,5.644-5.767c0-4.829-3.448-6.9-8.4-6.9-6.459,0-8.089,5.644-8.652,9.344h-.314a36.98,36.98,0,0,1,1.569-10.535l-.378-.126C573.751-.123,572.5-.123,560.4-.123V.5h.815c2.695,0,3.26,1.252,3.26,6.835V26.716c0,2.759-.815,3.7-3.451,3.7H560.4Zm31.979,0H611.5v-.627h-2.2c-2.381,0-3.134-.877-3.134-3.762V13.986c0-8.591,2.759-13.921,6.207-13.921,1.63,0,2.322,1.067,2.322,2.633a11.35,11.35,0,0,1-2.322,6.084,5.833,5.833,0,0,0,5.081,2.695A5.42,5.42,0,0,0,623.1,5.709c0-4.829-3.451-6.9-8.4-6.9-6.459,0-8.089,5.644-8.655,9.344h-.314A37.083,37.083,0,0,1,607.3-2.381l-.375-.126C605.73-.123,604.478-.123,592.375-.123V.5h.815c2.7,0,3.26,1.252,3.26,6.835V26.716c0,2.759-.815,3.7-3.448,3.7h-.627Zm32.105,0h18.249v-.627h-.815c-2.445,0-3.26-.938-3.26-3.762V7.087a55.676,55.676,0,0,1,.689-10.095l-.378-.126c-1.5,2.947-2.633,3.011-14.3,3.011V.5h.815c2.7,0,3.448,1.252,3.448,6.835V26.716c0,2.759-.815,3.7-3.636,3.7h-.815Zm8.9-37.248c3.574,0,5.58-1.63,5.58-4.325,0-2.759-2.006-4.392-5.58-4.392s-5.58,1.633-5.58,4.392c0,2.695,2.005,4.325,5.58,4.325m29.033,38.063c7.84,0,11.79-5.2,11.79-10.221a9.179,9.179,0,0,0-.689-3.448c-.378-.375-1.255-.064-1.507.5a6.874,6.874,0,0,1,1.067,3.7c0,4.2-3.386,8.84-10.661,8.84-8.089,0-5.58-9.969-5.58-16.176h18.246a12.183,12.183,0,0,0,.753-4.392c0-5.454-3.448-11.787-14.862-11.787-8.277,0-15.173,4.7-15.173,16.24,0,11.977,6.708,16.742,16.616,16.742m-5.518-17.5C656.773,8.529,654.516-.5,660.975-.5c3.952,0,4.829,3.011,4.829,6.459,0,3.073-.689,6.459-.689,8.4Zm35.993,17.5c6.585,0,7.65-4.137,8.465-8.089l.314.064v7.21h13.044v-.563H713.9c-2.319,0-2.947-1.381-2.947-6.647V-7.711a55.676,55.676,0,0,1,.689-10.095l-.375-.126c-1.507,2.947-3.639,3.762-15.05,3.636v.627h1c3.134,0,4.014,1.63,4.014,6.835V-.311c0,3.008,0,4.2.123,5.893h-.249c-.627-3.011-2.008-6.521-7.588-6.521-6.9,0-13.8,5.33-13.8,16.616,0,10.661,6.207,16.179,13.168,16.179m1.818-.941c-5.644-.062-3.888-9.092-3.888-14.986,0-6.145-1.818-15.927,4.14-15.927,4.577,0,6.272,4.952,6.272,14.924V17.12c-.064,8.028-1.569,13.8-6.524,13.8" transform="translate(7.097 17.932)" fill="#2b2e34"/>
      </g>
    </g>
  </g>
</svg>
